<svg width="1280" height="720" viewBox="0 0 1280 720" fill="none" xmlns="http://www.w3.org/2000/svg">
<g clip-path="url(#clip0_1_9)">
<rect width="1280" height="720" fill="white"/>
<rect width="1280" height="720" fill="url(#paint0_linear_1_9)"/>
<path d="M1210.24 668.82L1210.24 668.82L1210.23 668.814C1206.55 666.069 1205.23 663.189 1205.17 660.352C1205.11 657.419 1206.39 654.284 1208.43 651.091C1210.46 647.914 1213.16 644.832 1215.71 642.019C1216.14 641.553 1216.56 641.092 1216.98 640.637C1219.03 638.406 1220.92 636.337 1222.07 634.649L1222.08 634.643L1222.08 634.636C1225.89 628.906 1231.29 625.195 1236.86 621.373C1237.01 621.269 1237.17 621.164 1237.32 621.059C1242.97 617.174 1248.77 613.105 1252.42 606.623L1252.43 606.614L1252.43 606.604C1255.26 601.4 1260.63 597.645 1266.88 596.23C1268.29 596.1 1269.73 595.993 1271.05 596.415C1272.85 597.06 1274.1 598.626 1274.75 600.586C1275.4 602.553 1275.38 604.715 1274.81 606.26C1274.12 607.841 1273.03 609.233 1271.76 610.737C1271.6 610.927 1271.44 611.12 1271.27 611.316C1270.16 612.628 1268.95 614.054 1268 615.664L1267.99 615.671C1266.37 618.455 1265.64 621.705 1265.29 625.02C1265.02 627.618 1264.97 630.352 1264.91 633C1264.9 633.718 1264.89 634.429 1264.87 635.13C1264.78 638.469 1264.6 641.591 1263.91 644.313C1263.24 647.012 1262.09 649.223 1260.12 650.827L1260.11 650.835L1260.11 650.843C1257.49 653.062 1253.89 653.755 1249.75 654.246C1249.19 654.313 1248.62 654.376 1248.03 654.439C1244.51 654.826 1240.72 655.241 1237.56 656.724L1237.56 656.724C1234.82 658.011 1232.69 659.977 1230.77 661.965C1230.26 662.483 1229.78 662.998 1229.3 663.506C1227.9 664.993 1226.56 666.417 1225.01 667.67L1224.99 667.687L1224.97 667.705C1221.14 671.073 1215.05 672.461 1210.24 668.82Z" stroke="url(#paint1_angular_1_9)" stroke-width="2.69225" stroke-miterlimit="10"/>
<path d="M1279.25 629.618L1279.25 629.626L1279.25 629.634C1279.33 631.409 1279.47 633.253 1279.61 635.144C1279.85 638.353 1280.1 641.7 1280.09 645.088C1280.08 650.415 1279.41 655.441 1277.16 659.404C1275.05 663.061 1271.88 665.286 1267.99 666.97C1264.77 668.324 1261.15 668.958 1257.2 669.366C1255.4 669.552 1253.55 669.69 1251.64 669.832C1251.46 669.846 1251.28 669.859 1251.09 669.873C1249 670.029 1246.85 670.195 1244.67 670.44C1240.77 670.803 1237.04 671.494 1233.69 673.077C1229.81 674.712 1226.62 677.22 1223.61 680.005C1222.24 681.275 1220.89 682.618 1219.54 683.968C1219.4 684.101 1219.27 684.234 1219.14 684.368C1217.64 685.859 1216.12 687.357 1214.51 688.819L1214.51 688.819L1214.5 688.826C1205.62 696.997 1193.68 697.268 1184.88 690.29C1181.86 687.902 1179.4 685.315 1177.48 682.532C1174.71 678.253 1172.32 673.106 1171.37 667.877C1170.41 662.655 1170.9 657.427 1173.8 652.851C1174.38 651.936 1175.33 651.086 1176.59 650.253C1177.84 649.423 1179.31 648.668 1180.87 647.9C1181.14 647.77 1181.4 647.64 1181.67 647.509C1182.96 646.878 1184.29 646.229 1185.49 645.543C1186.94 644.716 1188.33 643.773 1189.35 642.625L1189.35 642.618L1189.36 642.612C1191.5 640.146 1193.5 637.739 1195.43 635.424C1198.99 631.152 1202.28 627.198 1205.66 623.781L1205.67 623.773L1205.68 623.765C1210.22 619.034 1214 613.845 1217.69 608.8C1218.11 608.223 1218.53 607.647 1218.95 607.074C1223.06 601.466 1227.14 596.11 1232.18 591.606C1234.45 589.586 1237.52 588.323 1240.9 587.01C1241.08 586.941 1241.25 586.872 1241.43 586.803C1244.55 585.597 1247.88 584.304 1250.54 582.248C1251.61 581.561 1252.33 580.873 1253.07 579.827L1253.08 579.812L1253.09 579.797C1258.35 571.911 1266.79 567.315 1275.98 566.131L1276 566.129L1276.02 566.126C1278.49 565.737 1281.01 565.824 1283.71 566.831L1284 566.939L1284.13 566.926C1287.79 568.605 1290.5 572.052 1292.06 575.956C1293.61 579.881 1293.9 584.032 1292.95 586.936L1292.94 586.958L1292.94 586.979C1292.16 589.641 1290.66 591.864 1288.89 594.102C1288.46 594.647 1288.01 595.2 1287.55 595.763C1286.17 597.445 1284.72 599.215 1283.57 601.13C1282.66 602.615 1281.91 603.96 1281.32 605.494C1278.58 612.323 1278.88 619.999 1279.16 627.077C1279.19 627.934 1279.22 628.782 1279.25 629.618Z" stroke="url(#paint2_angular_1_9)" stroke-width="2.69225" stroke-miterlimit="10"/>
<path d="M1290.82 673.191L1290.81 673.198L1290.81 673.204C1287.11 678.701 1281.7 681.347 1275.88 683.063C1271.25 684.407 1266.29 684.873 1261.05 685.101C1259.2 685.182 1257.29 685.233 1255.35 685.285C1251.89 685.378 1248.33 685.473 1244.79 685.745C1239.58 686.052 1234.79 687.205 1230.47 688.84L1230.46 688.846L1230.45 688.851C1225.28 690.945 1220.97 694.202 1216.9 697.891C1214.86 699.735 1212.86 701.702 1210.84 703.693L1210.73 703.805C1208.74 705.766 1206.73 707.751 1204.6 709.703C1190.01 723.013 1172.57 721.975 1159.87 711.733C1155.43 707.862 1151.3 703.896 1148.45 699.365L1148.45 699.356L1148.44 699.347C1144.35 693.059 1139.92 685.136 1137.63 677.006C1135.35 668.881 1135.25 660.731 1139.57 653.783C1140.37 652.542 1141.89 651.426 1144.02 650.37C1146.14 649.323 1148.67 648.418 1151.32 647.504C1151.59 647.408 1151.88 647.311 1152.16 647.214C1154.51 646.405 1156.92 645.577 1159.04 644.645C1161.41 643.61 1163.6 642.375 1165.04 640.741L1165.04 640.741L1165.05 640.732C1168.02 637.304 1170.77 633.929 1173.43 630.652C1178.88 623.96 1184 617.678 1189.96 612.198C1197.31 605.514 1202.19 596.919 1206.87 588.483C1207.05 588.165 1207.22 587.848 1207.4 587.531C1211.92 579.36 1216.33 571.407 1222.68 565.078L1222.68 565.074C1223.89 563.857 1225.58 562.961 1227.65 562.262C1229.72 561.564 1232.08 561.093 1234.58 560.669C1235.32 560.544 1236.07 560.422 1236.83 560.299C1238.6 560.013 1240.39 559.723 1242.09 559.372C1244.53 558.867 1246.91 558.213 1248.93 557.187C1250.34 556.498 1251.69 555.589 1252.71 554.258L1252.73 554.225L1252.75 554.191C1260.39 542.845 1272.61 537.015 1285.13 535.686C1288.85 535.343 1292.57 535.495 1296.71 537.211L1297.52 537.546L1297.56 537.507C1302.82 540.119 1306.85 545.188 1309.24 550.819C1311.71 556.613 1312.34 562.747 1311.01 567.044L1311.01 567.059L1311 567.075C1309.85 571.146 1307.63 574.423 1305.09 577.703C1304.56 578.383 1304.02 579.066 1303.47 579.758C1301.4 582.358 1299.22 585.081 1297.51 588.185L1297.51 588.197L1297.5 588.209C1296.53 590.053 1295.49 592.292 1294.81 594.529C1291.57 604.876 1292.53 616.251 1293.37 626.317C1293.46 627.412 1293.56 628.492 1293.64 629.553L1293.64 629.564C1293.84 631.803 1294.12 634.188 1294.42 636.675C1294.99 641.485 1295.61 646.674 1295.72 651.91C1295.88 659.806 1294.83 667.384 1290.82 673.191Z" stroke="url(#paint3_angular_1_9)" stroke-width="2.69225" stroke-miterlimit="10"/>
<path d="M1308.33 629.756L1308.33 629.756C1308.13 627.532 1307.88 625.241 1307.64 622.899C1306.33 610.528 1304.87 596.746 1308.77 583.971C1309.55 581.043 1310.84 578.265 1312.07 575.611L1312.09 575.558L1312.1 575.53L1312.12 575.504C1314.29 571.305 1317.18 567.685 1319.96 564.199C1320.63 563.363 1321.29 562.535 1321.93 561.709C1325.3 557.385 1328.27 553.015 1329.72 547.47L1329.72 547.459C1331.26 541.761 1330.22 533.674 1326.87 525.988C1323.53 518.324 1318 511.307 1310.86 507.622L1310.77 507.577C1310.7 507.56 1310.59 507.53 1310.48 507.488C1310.39 507.452 1310.25 507.392 1310.11 507.294C1304.79 504.755 1299.6 504.575 1294.86 505.015C1278.67 506.513 1263.02 513.529 1253.19 528.146C1252.59 529.111 1251.71 529.817 1250.82 530.372C1249.95 530.922 1248.96 531.381 1248.06 531.798L1248.02 531.817L1247.97 531.839L1247.92 531.857C1245.28 532.84 1242.14 533.3 1238.92 533.568C1236.85 533.74 1234.67 533.839 1232.52 533.935C1231.32 533.989 1230.14 534.043 1228.98 534.109C1225.69 534.296 1222.58 534.582 1219.91 535.233C1217.24 535.884 1215.13 536.869 1213.7 538.352C1206.18 546.337 1201.32 556.643 1196.34 567.215C1195.97 567.998 1195.6 568.783 1195.23 569.569C1189.88 580.864 1184.17 592.259 1174.64 600.555C1168.39 606.058 1163.02 612.214 1157.69 618.756C1155.95 620.883 1154.22 623.058 1152.46 625.263C1148.83 629.813 1145.09 634.495 1141.04 639.17L1141.03 639.176C1139.2 641.265 1136.24 642.77 1132.99 644.001C1130.06 645.113 1126.7 646.065 1123.39 647.001C1123.01 647.111 1122.62 647.221 1122.24 647.33C1118.53 648.385 1114.95 649.444 1111.99 650.734C1109 652.039 1106.86 653.487 1105.8 655.184L1105.8 655.187C1099.95 664.47 1100.65 675.575 1104.28 686.597C1107.91 697.608 1114.38 708.278 1119.69 716.465L1308.33 629.756ZM1308.33 629.756C1308.59 632.654 1308.98 635.791 1309.4 639.091C1310.19 645.335 1311.05 652.164 1311.21 659.063C1311.45 669.551 1310.03 679.722 1304.39 687.39C1299.32 694.212 1291.44 697.457 1283.7 699.19C1277.68 700.504 1271.39 700.795 1264.9 700.881C1263.35 700.901 1261.77 700.91 1260.19 700.919C1255.23 700.946 1250.18 700.973 1245.17 701.371C1238.42 701.647 1232.58 702.892 1227.13 704.984L1227.13 704.985C1216.17 709.224 1207.86 717.499 1198.82 726.506C1197.46 727.862 1196.08 729.235 1194.67 730.613L1194.67 730.614C1184.95 740.167 1174.22 744.133 1163.9 744.072C1153.56 744.011 1143.5 739.901 1135.17 733.109L1135.17 733.103M1308.33 629.756L1135.17 733.103M1135.17 733.103L1135.16 733.097M1135.17 733.103L1135.16 733.097M1135.16 733.097C1129.03 728.242 1123.72 722.653 1119.69 716.465L1135.16 733.097Z" stroke="url(#paint4_angular_1_9)" stroke-width="2.69225" stroke-miterlimit="10"/>
<path d="M1318.01 701.251L1318.01 701.248C1325.35 691.799 1327.11 678.997 1326.7 665.878C1326.43 657.165 1325.23 648.535 1324.14 640.773C1323.59 636.803 1323.06 633.061 1322.71 629.65C1322.45 627.198 1322.14 624.67 1321.83 622.085C1319.96 606.709 1317.85 589.277 1322.23 573.292C1323.11 569.657 1324.5 566.175 1326.22 562.695C1328.87 557.193 1332.56 552.545 1336.13 548.047C1336.81 547.184 1337.49 546.327 1338.16 545.47C1342.35 540.095 1346.12 534.664 1347.94 527.712L1347.94 527.703C1349.85 520.601 1348.49 510.568 1344.24 501.03C1340 491.515 1332.99 482.733 1323.9 478.018L1323.74 477.937C1323.74 477.934 1323.73 477.932 1323.72 477.93C1323.54 477.866 1323.25 477.751 1322.96 477.51C1316.2 474.264 1309.82 474.03 1304.04 474.565L1304.03 474.566L1304.02 474.567C1284.38 476.046 1265.07 484.438 1252.84 502.558L1252.83 502.57L1252.83 502.582C1251.26 504.793 1249.05 505.766 1246.47 506.697L1246.44 506.709L1246.41 506.719C1243.19 507.703 1239.3 507.995 1235.26 508.043C1232.76 508.074 1230.11 508.009 1227.49 507.946C1225.9 507.907 1224.32 507.869 1222.78 507.851C1218.65 507.805 1214.76 507.91 1211.45 508.526C1208.13 509.145 1205.59 510.245 1203.97 512.039L1203.97 512.041C1195.12 521.819 1189.78 534.572 1184.32 547.595C1183.82 548.803 1183.31 550.013 1182.8 551.223C1176.83 565.371 1170.34 579.508 1158.57 589.325C1150.31 596.297 1143.49 604.125 1136.86 612.354C1134.85 614.85 1132.85 617.388 1130.83 619.951C1126.22 625.809 1121.51 631.793 1116.32 637.679M1318.01 701.251L1115.31 636.79M1318.01 701.251C1311.31 709.939 1301.14 713.583 1291.49 715.326C1284.08 716.604 1276.47 716.719 1268.64 716.649C1267.24 716.637 1265.84 716.619 1264.43 716.6C1257.96 716.516 1251.34 716.43 1244.69 716.903L1318.01 701.251ZM1116.32 637.679C1116.32 637.679 1116.32 637.68 1116.32 637.68L1115.31 636.79M1116.32 637.679C1116.32 637.678 1116.32 637.677 1116.32 637.676L1115.31 636.79M1116.32 637.679C1114.11 640.208 1110.4 641.982 1106.27 643.407C1102.47 644.714 1098.1 645.795 1093.79 646.863C1093.35 646.972 1092.91 647.081 1092.47 647.19C1087.69 648.376 1083.05 649.574 1079.21 651.087C1075.33 652.615 1072.53 654.368 1071.16 656.507M1115.31 636.79C1111.56 641.078 1102.55 643.307 1093.46 645.558C1083.48 648.026 1073.4 650.521 1070.03 655.783M1071.16 656.507C1071.16 656.506 1071.16 656.505 1071.16 656.503L1070.03 655.783M1071.16 656.507C1071.16 656.508 1071.16 656.509 1071.16 656.51L1070.03 655.783M1071.16 656.507L1070.03 655.783M1109.6 754.759C1109.6 754.758 1109.59 754.757 1109.59 754.755L1108.74 755.795L1109.6 754.764C1109.6 754.762 1109.6 754.761 1109.6 754.759Z" stroke="url(#paint5_angular_1_9)" stroke-width="2.69225" stroke-miterlimit="10"/>
<path d="M1337.05 629.879L1337.05 629.887C1337.49 633.695 1338.13 637.884 1338.81 642.338C1340.24 651.731 1341.84 662.301 1342.22 672.965C1342.78 688.641 1340.65 704.049 1331.58 715.463C1323.48 725.488 1311.17 729.685 1299.27 731.468C1290.47 732.707 1281.57 732.683 1272.49 732.45C1270.79 732.407 1269.08 732.356 1267.37 732.305C1259.95 732.083 1252.4 731.858 1244.78 732.211C1235.43 732.554 1227.27 734.182 1219.81 736.979L1219.8 736.983C1202.73 743.564 1189.91 756.531 1174.92 771.682C1174.67 771.937 1174.41 772.193 1174.16 772.45L1174.16 772.451C1159.33 787.455 1143.11 793.343 1127.59 793.018C1112.03 792.693 1097.04 786.124 1084.76 775.988C1075.69 768.449 1067.47 760.202 1061.35 750.615L1061.34 750.606C1061.15 750.306 1060.95 750.003 1060.75 749.698C1052.99 737.766 1042.78 722.053 1036.57 705.756C1030.2 689.025 1028.2 672.024 1037.03 657.948C1038.72 655.364 1042.19 653.307 1046.95 651.558C1051.66 649.825 1057.36 648.489 1063.21 647.171C1063.71 647.06 1064.2 646.948 1064.7 646.836C1070.03 645.64 1075.41 644.432 1080.05 642.934C1085.08 641.312 1089.53 639.269 1092.12 636.303L1092.12 636.299C1098.05 629.451 1103.44 622.513 1108.71 615.725C1111.37 612.293 1114.01 608.899 1116.67 605.573C1124.62 595.634 1132.87 586.215 1143.06 577.864L1143.06 577.86C1156.81 566.469 1164.02 549.655 1170.61 532.7C1171.21 531.152 1171.8 529.604 1172.4 528.057C1178.37 512.54 1184.25 497.257 1194.43 485.544L1194.44 485.538C1196.25 483.421 1199.24 482.195 1203.18 481.602C1207.12 481.013 1211.79 481.083 1216.74 481.364C1218.8 481.481 1220.93 481.637 1223.07 481.793C1225.99 482.006 1228.92 482.22 1231.68 482.336C1236.5 482.54 1241.1 482.471 1244.87 481.583C1248.28 480.897 1250.87 479.529 1252.63 477.153L1252.64 477.129L1252.66 477.105C1267.08 455.694 1290.39 445.892 1313.35 444.276C1320.36 443.795 1327.97 444.093 1336.19 448.083C1336.21 448.095 1336.22 448.106 1336.24 448.117C1336.32 448.171 1336.4 448.214 1336.46 448.247C1336.58 448.308 1336.71 448.362 1336.78 448.393C1336.81 448.406 1336.83 448.417 1336.85 448.426L1336.9 448.471L1337.1 448.575C1348.04 454.236 1356.48 464.822 1361.62 476.237C1366.77 487.677 1368.5 499.699 1366.31 508.117C1364.09 516.654 1359.5 523.235 1354.47 529.676C1353.68 530.687 1352.88 531.698 1352.07 532.713C1347.78 538.107 1343.38 543.635 1340.29 550.214C1338.29 554.269 1336.82 558.441 1335.7 562.565L1335.7 562.569C1332.68 573.889 1332.46 585.649 1333.27 597.09C1333.79 604.515 1334.76 611.891 1335.68 618.927C1336.17 622.689 1336.65 626.355 1337.05 629.879Z" stroke="url(#paint6_angular_1_9)" stroke-width="2.69225" stroke-miterlimit="10"/>
<path d="M1351.74 630.088C1352.26 634.347 1353 639.058 1353.79 644.085C1355.51 655.027 1357.47 667.466 1357.94 680.009C1358.63 698.277 1356.13 716.292 1345.33 729.497C1335.6 741.383 1320.85 745.821 1307.03 747.612C1296.94 748.888 1286.77 748.639 1276.44 748.156C1274.68 748.073 1272.91 747.984 1271.14 747.894C1262.56 747.46 1253.84 747.019 1245.06 747.329C1234.5 747.611 1225.08 749.529 1216.52 752.772C1196.8 760.197 1182.03 775.21 1164.46 793.142C1147.01 810.795 1128.02 817.582 1109.91 817.092C1091.76 816.6 1074.35 808.797 1060.14 797.033C1049.85 788.225 1040.13 778.393 1032.85 767.184C1032.24 766.252 1031.62 765.298 1030.99 764.323C1022.14 750.738 1010.64 733.08 1003.41 714.769C995.656 695.118 992.974 675.093 1003.35 658.65L1003.36 658.643C1005.29 655.541 1009.38 653.134 1015 651.134C1020.56 649.153 1027.31 647.67 1034.23 646.222C1034.89 646.084 1035.55 645.946 1036.21 645.808C1042.44 644.509 1048.71 643.201 1054.12 641.551C1060.05 639.742 1065.24 637.441 1068.2 634.044C1075.24 626.013 1081.6 617.783 1087.86 609.69C1090.81 605.864 1093.74 602.069 1096.71 598.341C1105.99 586.688 1115.69 575.591 1127.8 565.861L1127.8 565.859C1143.77 552.961 1151.81 533.378 1159.04 513.547C1159.76 511.567 1160.48 509.586 1161.19 507.607C1167.67 489.631 1174.05 471.916 1185.48 458.492C1187.53 456.161 1190.97 454.885 1195.56 454.37C1200.13 453.859 1205.57 454.128 1211.35 454.645C1213.75 454.859 1216.22 455.118 1218.7 455.379C1222.12 455.737 1225.55 456.097 1228.79 456.341C1234.42 456.763 1239.78 456.865 1244.15 456.011C1247.82 455.317 1251.23 453.916 1253.09 451.072C1269.7 426.376 1296.45 415.39 1323.07 413.604C1331.29 413.182 1340.09 413.541 1349.75 418.238C1350.03 418.462 1350.29 418.577 1350.43 418.636L1350.45 418.646C1350.49 418.662 1350.51 418.673 1350.53 418.681L1350.64 418.8L1350.84 418.903C1363.54 425.606 1373.41 438 1379.45 451.314C1385.5 464.654 1387.59 478.662 1385.03 488.485L1385.03 488.494L1353.07 629.919M1351.74 630.088C1351.74 630.086 1351.74 630.085 1351.73 630.083L1353.07 629.919M1351.74 630.088C1351.74 630.089 1351.74 630.089 1351.74 630.09L1353.07 629.919M1351.74 630.088C1351.3 626.691 1350.81 623.192 1350.3 619.611C1347.31 598.443 1343.92 574.432 1349.67 551.998M1353.07 629.919C1352.63 626.49 1352.13 622.968 1351.63 619.374C1348.64 598.19 1345.3 574.482 1350.97 552.33M1349.67 551.998C1349.67 551.999 1349.67 552 1349.67 552.001L1350.97 552.33M1349.67 551.998C1349.67 551.997 1349.67 551.996 1349.67 551.996L1350.97 552.33M1349.67 551.998L1350.97 552.33M1354.9 537.505C1354.9 537.508 1354.9 537.511 1354.9 537.514L1356.12 538.086L1354.91 537.495C1354.91 537.499 1354.91 537.502 1354.9 537.505Z" stroke="url(#paint7_angular_1_9)" stroke-width="2.69225" stroke-miterlimit="10"/>
<path d="M1358.74 743.562L1358.73 743.571C1347.76 756.941 1330.52 761.96 1314.79 763.758C1303.31 764.991 1291.83 764.564 1280.17 763.945C1278.76 763.87 1277.35 763.792 1275.94 763.715C1265.68 763.15 1255.27 762.577 1244.72 763.021C1232.77 763.432 1222.3 765.443 1212.63 769.135C1190.56 777.295 1173.98 794.025 1154.01 814.24L1154 814.247C1134.07 834.708 1112.31 842.483 1091.56 841.872C1070.76 841.261 1050.85 832.226 1034.69 818.827L1034.69 818.823C1022.52 808.827 1011.44 797.577 1003.2 784.57L1003.2 784.565C1001.98 782.655 1000.7 780.662 999.364 778.596C989.609 763.473 977.309 744.404 969.306 724.649C960.199 702.168 956.823 679.203 968.675 660.309L968.678 660.305C970.823 656.855 975.524 654.203 981.993 652.015C988.397 649.849 996.2 648.241 1004.18 646.661C1004.82 646.536 1005.45 646.411 1006.08 646.286C1013.41 644.84 1020.8 643.384 1027.15 641.51C1033.98 639.492 1039.92 636.91 1043.24 633.084C1051.37 623.809 1058.65 614.307 1065.81 604.97C1069.15 600.608 1072.47 596.283 1075.83 592.033C1086.41 578.647 1097.51 565.919 1111.54 554.81L1111.54 554.806C1129.66 540.325 1138.46 518.029 1146.34 495.366C1147.14 493.053 1147.94 490.737 1148.73 488.424C1155.76 467.927 1162.7 447.68 1175.54 432.384C1177.84 429.664 1181.76 428.26 1186.99 427.788C1192.19 427.32 1198.42 427.798 1205.01 428.572C1207.68 428.886 1210.43 429.25 1213.18 429.615C1217.16 430.143 1221.15 430.672 1224.94 431.053C1231.37 431.698 1237.49 431.95 1242.48 431.046C1246.74 430.465 1250.3 428.851 1252.53 425.686L1252.54 425.674L1252.55 425.662C1271.56 397.471 1302.12 385.267 1332.05 383.345C1341.38 382.823 1351.77 383.219 1362.59 388.741L1362.73 388.811L1362.88 388.848C1362.94 388.862 1363 388.888 1363.21 389.005L1363.23 389.02C1363.4 389.111 1363.67 389.258 1364 389.365C1378.51 397.031 1389.82 411.147 1396.76 426.291C1403.74 441.504 1406.19 457.498 1403.25 468.728L1403.25 468.737L1403.24 468.746C1400.45 480.08 1394.4 488.814 1387.74 497.363C1386.71 498.691 1385.66 500.015 1384.61 501.346C1378.91 508.534 1373.09 515.884 1369.02 524.683C1366.49 530.143 1364.46 535.745 1363.13 541.3C1356.88 566.533 1360.73 593.44 1364.14 617.27C1364.77 621.678 1365.39 625.981 1365.92 630.149C1366.55 635.173 1367.45 640.751 1368.42 646.71C1370.43 659.036 1372.7 672.995 1373.3 687.069C1374.18 707.897 1371.35 728.471 1358.74 743.562Z" stroke="url(#paint8_angular_1_9)" stroke-width="2.69225" stroke-miterlimit="10"/>
<path d="M1322.4 779.747L1322.4 779.746C1340.15 778.102 1359.57 772.541 1372.34 757.443C1386.6 740.48 1389.8 717.292 1388.79 693.874C1388.09 677.734 1385.41 661.712 1383.07 647.691C1382.01 641.335 1381.01 635.39 1380.3 630.032C1379.67 625.342 1378.94 620.49 1378.19 615.512C1374.18 588.92 1369.63 558.719 1376.45 530.432L1376.46 530.419C1378.06 524.029 1379.99 517.916 1382.78 511.882C1387.35 501.919 1393.93 493.604 1400.38 485.452C1401.49 484.045 1402.6 482.642 1403.69 481.237C1411.17 471.641 1418.02 461.842 1421.27 449.172C1424.41 436.538 1421.62 418.591 1413.81 401.5C1406.04 384.476 1393.38 368.547 1377.04 359.761C1376.71 359.654 1376.44 359.508 1376.28 359.417L1376.25 359.403C1376.04 359.285 1375.98 359.26 1375.92 359.246L1375.78 359.209L1375.64 359.139C1363.36 352.891 1351.76 352.433 1341.23 352.896C1307.85 354.795 1273.64 368.366 1252.23 400.041C1249.89 403.653 1245.73 405.098 1241.06 405.88L1241.05 405.881L1241.04 405.882C1235.45 406.756 1228.55 406.326 1221.3 405.451C1217.07 404.941 1212.62 404.266 1208.18 403.594C1205.04 403.117 1201.9 402.642 1198.85 402.227C1191.43 401.217 1184.45 400.549 1178.64 400.966C1172.8 401.386 1168.46 402.884 1165.99 405.892L1165.99 405.893C1151.97 422.958 1144.52 445.618 1137 468.52C1136.09 471.29 1135.18 474.063 1134.25 476.831C1125.73 502.327 1116.12 527.296 1095.88 543.184L1095.88 543.185C1079.93 555.676 1067.34 570.046 1055.41 585.125C1051.5 590.069 1047.65 595.1 1043.78 600.167C1035.86 610.513 1027.84 621.006 1018.93 631.205M1322.4 779.747L1017.92 630.32M1322.4 779.747C1309.61 781.016 1296.88 780.489 1283.99 779.726C1282.18 779.618 1280.36 779.506 1278.54 779.394C1267.45 778.71 1256.22 778.017 1244.81 778.329L1322.4 779.747ZM1018.93 631.205C1018.93 631.205 1018.93 631.205 1018.93 631.205L1017.92 630.32M1018.93 631.205C1018.94 631.204 1018.94 631.204 1018.94 631.203L1017.92 630.32M1018.93 631.205C1015.24 635.457 1008.58 638.308 1000.85 640.524C993.65 642.587 985.256 644.169 976.916 645.74C976.225 645.87 975.535 646 974.846 646.13C965.793 647.841 956.926 649.586 949.645 651.972C942.296 654.379 936.909 657.336 934.443 661.244M1017.92 630.32C1011.35 637.883 994.052 641.141 976.652 644.42C957.882 647.957 938.989 651.516 933.304 660.527M934.443 661.244L933.304 660.527M934.443 661.244C934.443 661.244 934.443 661.245 934.442 661.245L933.304 660.527M934.443 661.244L933.304 660.527M974.151 801.364L973.018 802.091L974.151 801.365C974.151 801.364 974.151 801.364 974.151 801.364Z" stroke="url(#paint9_angular_1_9)" stroke-width="2.69225" stroke-miterlimit="10"/>
<path d="M1330.15 795.893L1330.15 795.893C1315.98 797.12 1301.93 796.414 1287.81 795.507C1286.25 795.407 1284.69 795.305 1283.14 795.202C1270.57 794.376 1257.93 793.545 1245.18 793.955C1230.46 794.277 1217.68 796.673 1206 801.068C1179.18 811.043 1158.51 831.063 1134.21 856.005C1108.92 881.866 1081.61 891.529 1055.67 890.627C1029.68 889.724 1004.93 878.216 984.83 861.48C969.743 848.826 955.949 834.724 945.401 818.478C943.467 815.462 941.389 812.275 939.214 808.939C927.168 790.464 912.145 767.423 902.104 743.566C890.238 715.373 885.521 686.482 900.463 662.843L900.466 662.838C903.218 658.437 909.261 655.149 917.468 652.5C925.605 649.874 935.52 647.977 945.632 646.126C946.433 645.979 947.235 645.833 948.038 645.686C957.324 643.991 966.657 642.288 974.652 640.047C983.275 637.631 990.661 634.511 994.725 629.833C1004.71 618.389 1013.64 606.643 1022.44 595.072C1026.69 589.482 1030.91 583.932 1035.2 578.476C1048.41 561.688 1062.4 545.685 1080.37 531.717L1080.38 531.715C1102.75 514.248 1113.14 486.572 1122.3 458.243C1123.3 455.15 1124.28 452.049 1125.27 448.952C1133.35 423.524 1141.36 398.324 1156.79 379.38C1159.52 376.059 1164.32 374.465 1170.79 374.096C1177.22 373.73 1184.96 374.589 1193.18 375.837C1196.6 376.357 1200.13 376.948 1203.66 377.54C1208.53 378.356 1213.41 379.174 1218.05 379.812C1226.1 380.917 1233.73 381.529 1239.92 380.69C1245.19 380.024 1249.72 378.181 1252.24 374.407C1275.65 339.619 1313.52 324.671 1350.56 322.605C1362.13 322.046 1375.09 322.715 1388.84 329.696L1388.97 329.764L1389.11 329.8C1389.12 329.801 1389.14 329.81 1389.18 329.833C1389.25 329.87 1389.33 329.917 1389.46 329.997L1389.5 330.022C1389.68 330.137 1390 330.342 1390.39 330.472C1408.51 340.126 1422.61 357.773 1431.29 376.654C1440.01 395.6 1443.15 415.536 1439.64 429.578C1436.09 443.735 1428.48 454.636 1420.18 465.276C1418.96 466.844 1417.72 468.407 1416.48 469.975C1409.33 479.001 1402.06 488.184 1397.05 499.209L1397.04 499.221L1397.04 499.234C1394.16 505.924 1391.79 512.753 1390.07 519.879L1390.07 519.884C1382.73 550.983 1387.74 584.093 1392.17 613.359C1393.05 619.157 1393.91 624.805 1394.64 630.256L1394.64 630.257C1395.44 636.138 1396.55 642.683 1397.75 649.695C1400.4 665.189 1403.43 682.963 1404.24 700.879C1405.4 726.861 1401.83 752.659 1385.75 771.511L1385.74 771.515C1371.72 788.101 1349.81 794.244 1330.15 795.893Z" stroke="url(#paint10_angular_1_9)" stroke-width="2.69225" stroke-miterlimit="10"/>
<path d="M1337.9 812.04L1337.91 812.039C1359.61 810.543 1383.68 803.859 1399.5 785.548C1417.3 764.905 1421.21 736.456 1419.91 707.818C1419.02 688.287 1415.72 668.905 1412.85 651.997C1411.5 644.074 1410.25 636.695 1409.37 630.098C1408.55 624.226 1407.6 618.137 1406.62 611.879C1401.58 579.773 1395.85 543.241 1404.09 508.949C1405.9 501.14 1408.38 493.597 1411.87 486.295C1417.35 474.178 1425.32 464.076 1433.17 454.128C1434.51 452.429 1435.84 450.734 1437.17 449.034C1446.26 437.331 1454.64 425.326 1458.56 409.756C1462.45 394.305 1458.94 372.383 1449.32 351.538C1439.73 330.737 1424.17 311.262 1404.26 300.574C1403.87 300.398 1403.57 300.213 1403.34 300.07L1403.33 300.06C1403.09 299.911 1402.93 299.811 1402.71 299.713L1402.67 299.698L1402.64 299.68C1387.44 291.973 1373.27 291.243 1360.66 291.9C1320.3 294.099 1278.62 310.262 1252.81 348.543L1252.8 348.555L1252.79 348.567C1249.87 352.708 1244.99 354.575 1239.04 355.304C1232.28 356.151 1223.9 355.38 1215.03 354.057C1209.93 353.296 1204.57 352.334 1199.22 351.375C1195.31 350.673 1191.41 349.973 1187.62 349.353C1178.55 347.871 1170.01 346.823 1162.94 347.152C1155.82 347.483 1150.54 349.192 1147.6 352.861L1147.59 352.866C1130.76 373.664 1122.22 401.393 1113.62 429.334C1112.55 432.796 1111.48 436.26 1110.4 439.716C1100.62 470.897 1089.46 501.282 1064.87 520.249L1064.05 519.183L1064.87 520.249C1044.97 535.598 1029.53 553.282 1014.97 571.808C1010.36 577.672 1005.84 583.63 1001.28 589.626C991.468 602.534 981.525 615.616 970.364 628.303M1337.9 812.04L969.351 627.418M1337.9 812.04C1322.35 813.224 1307.04 812.292 1291.62 811.181C1290.3 811.086 1288.99 810.99 1287.67 810.894C1273.57 809.865 1259.36 808.828 1244.89 809.297C1228.77 809.749 1214.75 812.433 1202.18 817.08M1337.9 812.04L1202.18 817.08M970.364 628.303C970.363 628.304 970.362 628.306 970.361 628.307L969.351 627.418M970.364 628.303C970.365 628.302 970.366 628.301 970.367 628.3L969.351 627.418M970.364 628.303C965.934 633.405 957.822 636.795 948.305 639.409C939.462 641.839 929.123 643.666 918.826 645.487C917.966 645.639 917.106 645.791 916.247 645.943C905.068 647.926 894.089 649.959 885.074 652.804C875.988 655.672 869.257 659.263 866.183 664.123M969.351 627.418C961.384 636.596 940.061 640.365 918.578 644.163C895.384 648.264 872.004 652.397 865.044 663.405M866.183 664.123C866.183 664.123 866.183 664.122 866.184 664.122L865.044 663.405M866.183 664.123C849.767 690.219 855.135 722.101 868.327 753.143C879.384 779.16 895.799 804.272 908.98 824.435C911.51 828.306 913.922 831.995 916.153 835.473L916.154 835.474C927.802 853.672 943.144 869.005 959.643 882.739L959.643 882.74C981.672 901.106 1008.94 913.845 1037.55 914.892C1066.11 915.938 1096.14 905.334 1123.8 876.761L1123.8 876.76C1150.36 849.373 1172.84 827.63 1202.18 817.08M866.183 664.123C866.182 664.124 866.182 664.124 866.182 664.124L865.044 663.405M865.044 663.405L1202.18 817.08" stroke="url(#paint11_angular_1_9)" stroke-width="2.69225" stroke-miterlimit="10"/>
<path d="M1345.66 828.187L1345.65 828.188C1328.72 829.328 1312.09 828.217 1295.36 826.883C1293.65 826.747 1291.94 826.608 1290.23 826.469C1275.21 825.253 1260.08 824.027 1244.67 824.29L1244.67 824.29C1227.34 824.681 1212.26 827.462 1198.58 832.56C1166.64 844.383 1142.57 867.643 1113.61 897.32L1113.6 897.322C1083.21 928.645 1050.36 940.197 1019.18 939.008C987.959 937.816 958.271 923.84 934.308 903.844L934.305 903.841C916.265 888.885 899.76 871.937 886.951 852.113C884.426 848.186 881.687 844.01 878.806 839.619C864.42 817.691 846.528 790.417 834.411 762.173C819.855 728.244 813.838 693.373 831.799 664.901C835.197 659.58 842.609 655.678 852.561 652.579C862.442 649.502 874.47 647.318 886.708 645.194C887.689 645.024 888.672 644.854 889.654 644.684C900.887 642.742 912.153 640.794 921.795 638.198C932.216 635.392 941.068 631.752 945.9 626.271L945.905 626.265C957.77 612.645 968.371 598.63 978.834 584.8C983.996 577.976 989.124 571.197 994.353 564.532C1010.21 544.317 1027.09 525.038 1048.91 508.306L1048.92 508.305C1075.54 487.856 1087.51 454.808 1097.95 420.813C1099.14 416.95 1100.3 413.075 1101.47 409.203C1110.62 378.835 1119.7 348.668 1137.74 326.066C1140.94 322.083 1146.7 320.287 1154.46 320.023C1162.17 319.76 1171.49 321.019 1181.37 322.758C1185.53 323.49 1189.81 324.312 1194.09 325.135C1199.9 326.25 1205.72 327.368 1211.27 328.268C1220.93 329.836 1230.06 330.797 1237.42 329.985C1243.89 329.385 1249.35 327.299 1252.33 322.769C1280.55 281.001 1325.87 263.47 1369.68 261.293C1383.46 260.698 1398.77 261.48 1415.35 269.828C1415.97 270.392 1416.74 270.726 1417.27 270.958L1417.31 270.974C1439.07 282.609 1456.06 303.885 1466.55 326.583C1477.07 349.325 1480.94 373.237 1476.78 390.004L1476.78 390.005C1472.56 407.063 1463.47 420.122 1453.58 432.844C1452.12 434.719 1450.65 436.588 1449.17 438.462C1440.64 449.256 1431.98 460.225 1425.99 473.466C1422.19 481.658 1419.62 489.896 1417.56 498.224L1417.56 498.233L1417.56 498.243C1408.93 535.446 1415.12 574.878 1420.59 609.645C1421.7 616.752 1422.79 623.664 1423.71 630.322C1424.66 637.259 1426 645.009 1427.44 653.33C1430.65 671.924 1434.36 693.37 1435.35 714.971C1436.79 746.2 1432.5 777.263 1413.05 799.78L1413.05 799.781C1395.98 819.575 1369.27 826.685 1345.66 828.187ZM1345.74 829.531C1369.5 828.019 1396.65 820.859 1414.07 800.66L1345.74 829.531Z" stroke="url(#paint12_angular_1_9)" stroke-width="2.69225" stroke-miterlimit="10"/>
<path d="M1353.4 844.335L1353.4 844.335C1335.09 845.432 1317.18 844.181 1299.16 842.751C1297.79 842.642 1296.42 842.533 1295.05 842.423C1278.41 841.09 1261.65 839.748 1244.48 840.139L1244.48 840.139C1225.75 840.66 1209.77 843.698 1194.85 849.077L1194.84 849.079C1160.55 861.636 1134.53 886.451 1103.31 918.581L1103.3 918.586C1070.44 952.716 1034.85 965.208 1001.08 963.851C967.267 962.492 935.121 947.238 909.225 925.613L909.22 925.609C889.466 909.255 871.414 891.077 857.656 869.46L857.656 869.46C854.625 864.701 851.295 859.604 847.779 854.224C832.449 830.764 813.589 801.902 800.659 772.027C784.752 735.272 778.034 697.455 797.472 666.526C801.105 660.761 809.147 656.552 819.95 653.22C830.679 649.911 843.763 647.569 857.072 645.292C858.122 645.113 859.174 644.933 860.226 644.754C872.463 642.668 884.733 640.577 895.226 637.778C906.555 634.757 916.143 630.835 921.34 624.93L921.341 624.928C934.376 610.067 945.99 594.717 957.464 579.551C962.936 572.32 968.375 565.13 973.922 558.056C991.134 536.102 1009.46 515.141 1033.21 497.028C1062.04 475.081 1074.79 439.327 1085.85 402.479C1087.12 398.258 1088.37 394.023 1089.61 389.79C1099.28 356.907 1108.9 324.206 1128.34 299.747C1131.74 295.495 1137.95 293.628 1146.33 293.423C1154.66 293.22 1164.74 294.666 1175.44 296.632C1179.94 297.46 1184.58 298.386 1189.22 299.313C1195.51 300.568 1201.81 301.825 1207.81 302.848C1218.29 304.632 1228.17 305.761 1236.13 304.979L1236.15 304.978L1236.16 304.977C1243.13 304.156 1248.74 302.239 1252.14 297.335L1252.14 297.324C1282.76 252.061 1331.7 233.501 1379.03 231.001C1394.19 230.278 1410.86 231.275 1428.75 240.195C1429.37 240.758 1430.14 241.091 1430.67 241.324L1430.7 241.338C1454.3 254.095 1472.68 277.137 1484.03 301.69C1495.41 326.287 1499.61 352.15 1495.15 370.41C1490.65 388.782 1480.8 402.942 1470.09 416.754C1468.52 418.77 1466.94 420.78 1465.35 422.796C1456.1 434.537 1446.7 446.46 1440.25 460.795L1440.25 460.807C1436.36 469.678 1433.54 478.446 1431.38 487.489L1431.38 487.493C1421.85 527.897 1428.76 570.756 1434.83 608.372C1436.05 615.934 1437.23 623.284 1438.25 630.36C1439.28 637.815 1440.75 646.16 1442.32 655.131C1445.83 675.201 1449.9 698.403 1451 721.784C1452.59 755.578 1447.93 789.254 1426.65 813.66L1426.65 813.665C1407.93 835.33 1378.92 842.828 1353.4 844.335ZM856.521 870.183L856.521 870.183L856.521 870.183Z" stroke="url(#paint13_angular_1_9)" stroke-width="2.69225" stroke-miterlimit="10"/>
<path d="M1361.15 860.482L1361.15 860.483C1341.45 861.536 1322.22 860.105 1302.86 858.563C1302.06 858.5 1301.27 858.437 1300.48 858.373C1281.92 856.892 1263.21 855.398 1243.95 856.02C1223.86 856.322 1206.43 859.843 1190.61 865.472L1190.61 865.475C1153.96 878.766 1126.13 905.3 1092.65 939.876L1092.65 939.877C1057.26 976.564 1018.91 989.959 982.52 988.458C946.085 986.954 911.469 970.51 883.642 947.258C862.529 929.477 843.118 909.873 828.204 886.638L828.202 886.636C825.016 881.69 821.524 876.398 817.839 870.813C801.14 845.508 780.476 814.193 766.318 781.763C749.023 742.146 741.654 701.34 762.639 668.033C766.595 661.809 775.327 657.297 787.009 653.746C798.615 650.218 812.762 647.741 827.14 645.333C828.248 645.147 829.358 644.962 830.468 644.777C843.714 642.566 856.99 640.35 868.332 637.363C880.556 634.143 890.868 629.951 896.43 623.622L896.431 623.621C910.448 607.619 922.891 591.103 935.188 574.78C941.051 566.997 946.882 559.258 952.834 551.639C971.303 528 991.028 505.404 1016.81 485.813C1047.77 462.29 1061.38 423.829 1073.13 384.143C1074.51 379.478 1075.86 374.798 1077.22 370.12C1087.44 334.824 1097.6 299.726 1118.24 273.485C1121.91 268.831 1128.64 266.827 1137.67 266.653C1146.65 266.48 1157.52 268.12 1169.05 270.332C1173.95 271.272 1178.99 272.321 1184.03 273.372C1190.76 274.772 1197.5 276.173 1203.92 277.322C1215.2 279.339 1225.82 280.638 1234.34 279.849C1241.88 279.151 1247.86 276.838 1251.45 271.768L1251.45 271.756L1251.46 271.744C1284.08 223.372 1336.87 203.252 1387.66 200.775L1387.66 200.774C1404.28 199.919 1422.2 200.987 1441.41 210.901L1441.45 210.921L1441.49 210.939C1441.61 210.988 1441.73 211.042 1441.85 211.102C1442.05 211.195 1442.26 211.301 1442.48 211.414L1442.5 211.423C1442.84 211.589 1443.2 211.774 1443.55 211.926C1469 225.629 1488.81 250.475 1501.07 276.925C1513.34 303.419 1517.91 331.271 1513.17 350.847L1513.17 350.849C1508.37 370.708 1497.76 385.971 1486.22 400.825C1484.53 403.004 1482.82 405.175 1481.1 407.352C1471.15 419.965 1461.06 432.756 1454.17 448.151L1454.17 448.16C1450.03 457.57 1446.91 467.229 1444.65 476.977L1444.65 476.984C1434.91 520.073 1442.28 565.732 1448.76 605.959C1450.13 614.432 1451.46 622.663 1452.58 630.579L1452.58 630.582C1453.7 638.378 1455.24 647.092 1456.9 656.459C1460.76 678.211 1465.24 703.48 1466.44 728.937C1468.16 765.321 1463.13 801.612 1440.21 827.892C1420.08 850.898 1388.71 859.128 1361.15 860.482Z" stroke="url(#paint14_angular_1_9)" stroke-width="2.69225" stroke-miterlimit="10"/>
<path d="M1368.89 876.63L1368.89 876.63C1398.36 875.272 1432.03 866.654 1453.81 841.776L1453.81 841.774C1478.56 813.605 1483.96 774.7 1482.07 735.731C1480.74 708.344 1475.84 681.159 1471.62 657.814C1469.84 647.912 1468.18 638.701 1466.96 630.459L1466.96 630.457C1465.77 622.212 1464.36 613.642 1462.91 604.822C1455.84 561.708 1447.79 512.6 1458.32 466.081M1368.89 876.63L1459.63 466.378M1368.89 876.63C1347.82 877.64 1327.33 875.983 1306.73 874.147C1305.37 874.026 1304.01 873.904 1302.65 873.782C1283.42 872.057 1264.06 870.32 1244.13 870.632L1244.12 870.632C1222.63 871.063 1204.15 874.68 1187.22 880.759L1187.22 880.76C1148.01 894.976 1118.03 923.254 1082.5 960.091L1082.5 960.092C1044.45 999.607 1003.36 1014.03 964.393 1012.42C925.377 1010.81 888.341 993.131 858.506 968.17C835.991 949.317 815.073 928.131 799.003 903.279C795.52 897.873 791.689 892.076 787.64 885.948C769.796 858.947 747.717 825.536 732.535 790.934C713.895 748.448 705.874 704.65 728.409 668.965L728.409 668.965C732.651 662.244 742.052 657.411 754.606 653.634C767.082 649.88 782.297 647.271 797.751 644.742C798.971 644.542 800.192 644.343 801.413 644.144C815.625 641.827 829.86 639.506 842.016 636.353C855.147 632.948 866.193 628.495 872.12 621.743L872.121 621.741C887.031 604.703 900.295 587.105 913.413 569.7C919.785 561.248 926.121 552.84 932.596 544.565C952.434 519.208 973.648 494.969 1001.35 473.994L1001.35 473.994C1034.35 448.99 1048.72 407.915 1061.1 365.439C1062.56 360.425 1064 355.39 1065.43 350.358C1076.2 312.597 1086.92 274.986 1108.89 246.816M1368.89 876.63L1000.54 472.921C1036.98 445.312 1050.52 397.787 1064.14 349.995C1074.89 312.27 1085.68 274.378 1107.83 245.985M1458.32 466.081L1459.63 466.378M1458.32 466.081C1458.32 466.081 1458.32 466.082 1458.32 466.082L1459.63 466.378M1458.32 466.081C1460.68 455.625 1464.05 445.427 1468.48 435.141L1468.49 435.131C1475.82 418.461 1486.7 404.668 1497.43 391.054C1499.18 388.834 1500.92 386.619 1502.65 384.397C1515.01 368.497 1526.42 352.171 1531.59 330.9L1531.59 330.899C1536.7 309.915 1531.72 280.125 1518.5 251.781C1505.29 223.466 1483.98 196.846 1456.74 182.105L1456.73 182.101C1456.36 181.894 1456.02 181.724 1455.65 181.542C1455.3 181.364 1454.92 181.174 1454.5 180.942M1459.63 466.378C1461.97 456.008 1465.32 445.89 1469.72 435.673C1476.98 419.173 1487.73 405.527 1498.47 391.907C1512.71 373.837 1526.92 355.811 1532.89 331.218C1543.32 288.435 1512.5 210.752 1457.38 180.921C1456.98 180.7 1456.62 180.519 1456.26 180.338C1455.89 180.156 1455.53 179.975 1455.13 179.754M1454.5 180.942C1454.5 180.945 1454.51 180.948 1454.51 180.951L1455.13 179.754M1454.5 180.942C1433.83 170.309 1414.71 169.182 1397.05 170.134L1397.04 170.135C1342.8 172.589 1286.35 194.079 1251.33 245.943C1247.68 251.409 1240.95 253.768 1233.11 254.494L1233.1 254.495C1223.97 255.252 1212.6 253.786 1200.52 251.554C1193.63 250.282 1186.42 248.741 1179.22 247.203C1173.81 246.048 1168.41 244.894 1163.16 243.857C1150.83 241.42 1139.19 239.593 1129.59 239.705C1119.94 239.819 1112.77 241.893 1108.89 246.816M1454.5 180.942C1454.49 180.939 1454.48 180.936 1454.48 180.933L1455.13 179.754M1455.13 179.754C1434.16 168.96 1414.77 167.831 1396.98 168.79C1342.45 171.258 1285.54 192.875 1250.22 245.191C1246.91 250.143 1240.7 252.439 1232.98 253.154C1218.96 254.317 1199.29 250.115 1179.54 245.895C1148.98 239.365 1118.22 232.792 1107.83 245.985M1107.83 245.985L1108.88 246.818C1108.88 246.817 1108.88 246.817 1108.89 246.816M1107.83 245.985L1108.89 246.813C1108.89 246.814 1108.89 246.815 1108.89 246.816" stroke="url(#paint15_angular_1_9)" stroke-width="2.69225" stroke-miterlimit="10"/>
<path d="M1481.45 630.835L1481.45 630.84C1482.73 639.496 1484.48 649.174 1486.36 659.585C1490.86 684.49 1496.12 713.585 1497.53 742.902C1499.53 784.443 1493.76 825.964 1467.36 856.007C1444.18 882.22 1408.35 891.382 1376.63 892.778C1354.18 893.744 1332.37 891.908 1310.5 889.994L1308.83 889.848C1287.55 887.984 1266.18 886.113 1244.24 886.798C1221.55 887.168 1202.01 890.881 1183.98 897.408L1183.98 897.409C1142.57 912.517 1110.64 942.348 1072.85 981.636C1032.18 1023.8 988.319 1039.13 946.757 1037.35C905.148 1035.57 865.691 1016.65 833.923 990.063L833.921 990.062C809.853 969.978 787.582 947.371 770.558 920.717L770.557 920.716C766.591 914.517 762.191 907.842 757.53 900.771C738.673 872.163 715.538 837.065 699.504 800.744C679.494 755.414 670.771 708.67 694.781 670.528L694.784 670.524C699.261 663.358 709.282 658.23 722.666 654.239C735.97 650.271 752.215 647.528 768.716 644.87C770 644.663 771.284 644.457 772.57 644.251C787.765 641.812 802.987 639.369 815.98 636.03C830.001 632.426 841.77 627.703 848.061 620.528L848.062 620.526C863.957 602.347 878.073 583.56 892.037 564.976C898.81 555.963 905.547 546.996 912.434 538.17C933.555 511.103 956.169 485.23 985.801 462.873C1021.01 436.372 1036.14 392.595 1049.15 347.266C1050.69 341.897 1052.21 336.506 1053.72 331.117C1065.01 290.834 1076.27 250.681 1099.64 220.651L1099.64 220.65C1103.74 215.371 1111.36 213.197 1121.61 213.143C1131.81 213.09 1144.19 215.132 1157.32 217.829C1162.83 218.959 1168.48 220.21 1174.15 221.463C1181.91 223.179 1189.69 224.9 1197.13 226.323C1210.02 228.787 1222.16 230.419 1231.94 229.649C1240.5 229.205 1247.4 226.642 1251.44 220.822L1251.45 220.816L1251.45 220.809C1288.87 165.455 1348.93 142.938 1406.68 140.159C1425.55 139.266 1445.89 140.455 1468.01 151.823L1468.05 151.842L1468.09 151.86C1468.67 152.113 1469.41 152.52 1470.23 152.973L1470.24 152.976C1499.23 168.759 1521.97 197.183 1536.08 227.395C1550.2 257.636 1555.54 289.413 1550.06 311.806L1550.06 311.812C1544.59 334.572 1532.46 351.953 1519.32 368.872C1517.45 371.269 1515.57 373.658 1513.68 376.053C1502.28 390.509 1490.71 405.164 1482.86 422.951C1478.02 433.639 1474.55 444.542 1472.09 455.687C1465.31 485.508 1465.8 516.346 1468.9 546.18C1470.91 565.519 1474.03 584.523 1476.99 602.556C1478.59 612.299 1480.14 621.758 1481.45 630.835Z" stroke="url(#paint16_angular_1_9)" stroke-width="2.69225" stroke-miterlimit="10"/>
<path d="M740.855 937.231C736.581 930.547 731.82 923.33 726.766 915.669C706.818 885.431 682.318 848.293 665.276 809.848C643.902 761.63 634.49 711.856 660.049 671.336L660.051 671.333C664.801 663.756 675.484 658.35 689.74 654.147C703.913 649.97 721.228 647.085 738.811 644.284C740.107 644.077 741.405 643.871 742.704 643.665C758.968 641.082 775.265 638.494 789.159 634.943C804.091 631.126 816.595 626.12 823.25 618.522L823.251 618.521C840.039 599.304 854.978 579.434 869.764 559.768C877.044 550.085 884.286 540.452 891.695 530.97C914.185 502.185 938.287 474.668 969.847 450.928C1007.18 422.852 1023.14 376.327 1036.82 328.141C1038.45 322.397 1040.05 316.63 1041.65 310.865C1053.5 268.087 1065.31 225.459 1089.98 193.665L1089.98 193.664C1092.62 190.258 1096.65 188.08 1101.91 186.896C1107.17 185.71 1113.57 185.547 1120.77 186.098C1135.05 187.19 1152.19 191.055 1169.43 194.944L1169.93 195.056C1187.28 198.969 1204.7 202.879 1219.13 203.849C1226.35 204.334 1232.9 204.092 1238.37 202.702C1243.85 201.309 1248.32 198.737 1251.22 194.506L1251.22 194.504C1290.99 136.003 1354.7 112.116 1415.91 109.361L1415.91 109.361C1435.83 108.371 1457.52 109.776 1481.11 121.872L1481.11 121.873C1512.72 138.016 1537.47 168.352 1552.85 200.811C1568.25 233.298 1574.14 267.648 1568.33 291.705C1562.49 315.878 1549.6 334.363 1535.65 352.346C1533.69 354.875 1531.7 357.395 1529.71 359.921C1517.6 375.305 1505.34 390.884 1497.02 409.772C1480.93 446.203 1478.27 485.154 1480.81 523.107C1482.6 549.874 1486.98 576.25 1491.07 600.908C1492.78 611.171 1494.44 621.137 1495.83 630.71L1495.83 630.714C1497.2 639.869 1499.06 650.125 1501.07 661.169C1505.88 687.595 1511.5 718.534 1513.03 749.707C1515.19 793.879 1509.08 838.053 1480.96 869.889C1456.14 897.976 1418 907.525 1384.37 908.926L1384.37 908.926C1360.62 909.926 1337.53 907.95 1314.38 905.834C1313.32 905.738 1312.26 905.641 1311.2 905.544C1289.12 903.52 1266.94 901.488 1244.16 901.949L1244.16 901.949C1164.59 903.595 1120.2 942.29 1062.65 1002.2C1019.43 1047.1 972.8 1063.32 928.6 1061.38C884.352 1059.44 842.386 1039.29 808.585 1011.16L807.724 1012.2L808.584 1011.16C782.964 989.85 759.186 965.66 740.855 937.231ZM740.855 937.231C740.855 937.232 740.856 937.232 740.856 937.233L739.722 937.958M740.855 937.231C740.854 937.23 740.854 937.23 740.854 937.229L739.722 937.958M739.722 937.958C735.466 931.302 730.717 924.105 725.673 916.458C680.726 848.328 612.269 744.561 658.91 670.618L1063.62 1003.13C976.674 1093.44 875.653 1068.72 807.724 1012.2C782.037 990.829 758.15 966.539 739.722 937.958Z" stroke="url(#paint17_angular_1_9)" stroke-width="2.69225" stroke-miterlimit="10"/>
<g filter="url(#filter0_ii_1_9)">
<rect x="70" y="118" width="543" height="277" rx="10" fill="#313949"/>
</g>
<rect x="70.5705" y="118.571" width="541.859" height="275.859" rx="9.42946" stroke="#313949" stroke-width="1.14108"/>
<g filter="url(#filter1_ii_1_9)">
<rect x="633" y="118" width="624" height="277" rx="10" fill="#313949"/>
</g>
<rect x="633.571" y="118.571" width="622.859" height="275.859" rx="9.42946" stroke="#313949" stroke-width="1.14108"/>
<g filter="url(#filter2_ii_1_9)">
<rect x="633" y="413" width="624" height="280" rx="10" fill="#333333"/>
</g>
<rect x="633.571" y="413.571" width="622.859" height="278.859" rx="9.42946" stroke="#313949" stroke-width="1.14108"/>
<g filter="url(#filter3_dd_1_9)">
<path d="M561 31C561 25.4772 565.477 21 571 21H743C748.523 21 753 25.4772 753 31V90C753 95.5229 748.523 100 743 100H571C565.477 100 561 95.5229 561 90V31Z" fill="url(#paint18_linear_1_9)"/>
<path d="M562 31C562 26.0294 566.029 22 571 22H743C747.971 22 752 26.0294 752 31V90C752 94.9706 747.971 99 743 99H571C566.029 99 562 94.9706 562 90V31Z" stroke="#313949" stroke-opacity="0.5" stroke-width="2"/>
</g>
<g filter="url(#filter4_dd_1_9)">
<path d="M770 31C770 25.4772 774.477 21 780 21H952C957.523 21 962 25.4772 962 31V90C962 95.5229 957.523 100 952 100H780C774.477 100 770 95.5229 770 90V31Z" fill="url(#paint19_linear_1_9)"/>
<path d="M771 31C771 26.0294 775.029 22 780 22H952C956.971 22 961 26.0294 961 31V90C961 94.9706 956.971 99 952 99H780C775.029 99 771 94.9706 771 90V31Z" stroke="#313949" stroke-opacity="0.5" stroke-width="2"/>
</g>
<g filter="url(#filter5_dd_1_9)">
<path d="M979 31C979 25.4772 983.477 21 989 21H1249C1254.52 21 1259 25.4772 1259 31V90C1259 95.5229 1254.52 100 1249 100H989C983.477 100 979 95.5229 979 90V31Z" fill="url(#paint20_linear_1_9)"/>
<path d="M980 31C980 26.0294 984.029 22 989 22H1249C1253.97 22 1258 26.0294 1258 31V90C1258 94.9706 1253.97 99 1249 99H989C984.029 99 980 94.9706 980 90V31Z" stroke="#313949" stroke-opacity="0.5" stroke-width="2"/>
</g>
<g clip-path="url(#clip1_1_9)" filter="url(#filter6_d_1_9)">
<path d="M989.889 32.4722V33.4366C989.891 33.5502 989.937 33.6585 990.018 33.738L996.287 40.0758C996.368 40.1553 996.415 40.2636 996.416 40.3772V46.3102C996.416 46.3909 996.438 46.47 996.481 46.5385C996.524 46.6071 996.585 46.6622 996.657 46.6977L1000.06 47.9119C1000.12 47.9441 1000.2 47.959 1000.27 47.9552C1000.34 47.9515 1000.41 47.9291 1000.48 47.8904C1000.54 47.8516 1000.59 47.7976 1000.62 47.7336C1000.66 47.6696 1000.68 47.5976 1000.68 47.5244V40.2997C1000.69 40.1833 1000.75 40.0757 1000.83 39.9983L1006.96 33.7552C1007.05 33.6757 1007.09 33.5674 1007.09 33.4538V32.4722H989.889Z" fill="#1CE783" fill-opacity="0.65"/>
</g>
<g style="mix-blend-mode:screen" filter="url(#filter7_f_1_9)">
<path d="M26.4019 777.643C97.0581 784.018 155.016 731.679 155.855 660.741C156.694 589.803 100.095 527.128 29.4392 520.753L4.93443 518.542C-65.7218 512.168 -123.68 564.507 -124.519 635.445C-125.357 706.383 -68.7591 769.058 1.89709 775.433L26.4019 777.643Z" fill="url(#paint21_radial_1_9)"/>
</g>
<g filter="url(#filter8_dd_1_9)">
<path d="M19 128C19 122.477 23.4772 118 29 118H60C65.5228 118 70 122.477 70 128V683C70 688.523 65.5228 693 60 693H29C23.4772 693 19 688.523 19 683V128Z" fill="url(#paint22_linear_1_9)"/>
<path d="M20 128C20 123.029 24.0294 119 29 119H60C64.9706 119 69 123.029 69 128V683C69 687.971 64.9706 692 60 692H29C24.0294 692 20 687.971 20 683V128Z" stroke="#313949" stroke-opacity="0.5" stroke-width="2"/>
</g>
<g filter="url(#filter9_d_1_9)">
<line x1="44.5" y1="329" x2="44.5" y2="459" stroke="#1CE783"/>
</g>
<g filter="url(#filter10_ddii_1_9)">
<circle cx="44.5" cy="337.5" r="18.5" fill="url(#paint23_linear_1_9)"/>
<circle cx="44.5" cy="337.5" r="17.575" stroke="#293140" stroke-opacity="0.65" stroke-width="1.85"/>
</g>
<path d="M51.8161 334.598L44.7349 329.114C44.638 329.039 44.5187 328.999 44.3962 329C44.2737 329.001 44.1551 329.043 44.0593 329.12L37.2046 334.603C37.1408 334.654 37.0893 334.719 37.0539 334.793C37.0184 334.867 37 334.948 37 335.029V344.945C37 345.017 37.0141 345.088 37.0415 345.154C37.0689 345.221 37.1091 345.281 37.1598 345.331C37.2105 345.382 37.2707 345.422 37.337 345.45C37.4032 345.477 37.4742 345.491 37.5459 345.491H41.6207C41.7654 345.491 41.9043 345.434 42.0066 345.331C42.109 345.229 42.1665 345.09 42.1666 344.945V338.874H46.8609V344.945C46.8609 345.09 46.9184 345.229 47.0208 345.331C47.1232 345.434 47.262 345.491 47.4068 345.491H51.4822C51.627 345.491 51.7658 345.434 51.8682 345.331C51.9705 345.229 52.0281 345.09 52.0281 344.945V335.029C52.0282 334.946 52.0091 334.864 51.9723 334.789C51.9356 334.714 51.8821 334.649 51.8161 334.598Z" fill="#B9BCC2"/>
<g filter="url(#filter11_ddii_1_9)">
<circle cx="44.5" cy="447.5" r="18.5" fill="url(#paint24_linear_1_9)"/>
<circle cx="44.5" cy="447.5" r="17.575" stroke="#293140" stroke-opacity="0.65" stroke-width="1.85"/>
</g>
<g filter="url(#filter12_ddd_1_9)">
<circle cx="44.5" cy="392.5" r="18.5" fill="url(#paint25_linear_1_9)"/>
<circle cx="44.5" cy="392.5" r="17.7955" stroke="#1D222E" stroke-opacity="0.1" stroke-width="1.40909"/>
</g>
<g filter="url(#filter13_ii_1_9)">
<rect width="530" height="280" rx="10" transform="matrix(1 0 0 -1 83 693)" fill="#313949"/>
</g>
<rect x="0.570539" y="-0.570539" width="528.859" height="278.859" rx="9.42946" transform="matrix(1 0 0 -1 83 691.859)" stroke="#313949" stroke-width="1.14108"/>
<path d="M45.614 449.86L50.522 454.782C50.912 455.173 51.512 455.142 51.808 454.676C52.7194 453.236 53.2025 451.566 53.201 449.861C53.2026 447.814 52.5071 445.828 51.229 444.23L45.614 449.86V449.86ZM43 450.276V442.921C41.3329 443.163 39.8088 443.998 38.7069 445.272C37.605 446.547 36.9991 448.175 37 449.86C37 453.736 40.134 456.88 44 456.88C45.5108 456.88 46.9804 456.387 48.186 455.477L43 450.276ZM50.331 442.093C50.721 441.702 50.696 441.094 50.242 440.78C48.9664 439.896 47.5173 439.295 45.991 439.015C45.447 438.915 45 439.327 45 439.88V447.44L50.331 442.093V442.093Z" fill="#B9BCC2"/>
<path d="M47.534 402.95H52V394.28C52 390.614 50.2617 389.157 47.4414 389.157L46.855 389.138H44.0682C43.5113 389.147 42.9606 389.265 42.4434 389.487L42.4746 389.475V383H38V403H42.4816V395.095C42.4717 394.917 42.4952 394.739 42.5507 394.571C42.6063 394.403 42.6927 394.248 42.8048 394.116C42.917 393.985 43.0526 393.878 43.2037 393.804C43.3549 393.729 43.5184 393.687 43.6848 393.682H46.3059C46.9763 393.682 47.5216 394.259 47.5348 394.977L47.534 402.95Z" fill="#38E783"/>
</g>
<defs>
<filter id="filter0_ii_1_9" x="64.2946" y="112.295" width="554.411" height="288.411" filterUnits="userSpaceOnUse" color-interpolation-filters="sRGB">
<feFlood flood-opacity="0" result="BackgroundImageFix"/>
<feBlend mode="normal" in="SourceGraphic" in2="BackgroundImageFix" result="shape"/>
<feColorMatrix in="SourceAlpha" type="matrix" values="0 0 0 0 0 0 0 0 0 0 0 0 0 0 0 0 0 0 127 0" result="hardAlpha"/>
<feOffset dx="5.70539" dy="5.70539"/>
<feGaussianBlur stdDeviation="5.70539"/>
<feComposite in2="hardAlpha" operator="arithmetic" k2="-1" k3="1"/>
<feColorMatrix type="matrix" values="0 0 0 0 0.172549 0 0 0 0 0.2 0 0 0 0 0.254902 0 0 0 1 0"/>
<feBlend mode="normal" in2="shape" result="effect1_innerShadow_1_9"/>
<feColorMatrix in="SourceAlpha" type="matrix" values="0 0 0 0 0 0 0 0 0 0 0 0 0 0 0 0 0 0 127 0" result="hardAlpha"/>
<feOffset dx="-5.70539" dy="-5.70539"/>
<feGaussianBlur stdDeviation="5.70539"/>
<feComposite in2="hardAlpha" operator="arithmetic" k2="-1" k3="1"/>
<feColorMatrix type="matrix" values="0 0 0 0 0.250398 0 0 0 0 0.292268 0 0 0 0 0.371354 0 0 0 0.25 0"/>
<feBlend mode="normal" in2="effect1_innerShadow_1_9" result="effect2_innerShadow_1_9"/>
</filter>
<filter id="filter1_ii_1_9" x="627.295" y="112.295" width="635.411" height="288.411" filterUnits="userSpaceOnUse" color-interpolation-filters="sRGB">
<feFlood flood-opacity="0" result="BackgroundImageFix"/>
<feBlend mode="normal" in="SourceGraphic" in2="BackgroundImageFix" result="shape"/>
<feColorMatrix in="SourceAlpha" type="matrix" values="0 0 0 0 0 0 0 0 0 0 0 0 0 0 0 0 0 0 127 0" result="hardAlpha"/>
<feOffset dx="5.70539" dy="5.70539"/>
<feGaussianBlur stdDeviation="5.70539"/>
<feComposite in2="hardAlpha" operator="arithmetic" k2="-1" k3="1"/>
<feColorMatrix type="matrix" values="0 0 0 0 0.172549 0 0 0 0 0.2 0 0 0 0 0.254902 0 0 0 1 0"/>
<feBlend mode="normal" in2="shape" result="effect1_innerShadow_1_9"/>
<feColorMatrix in="SourceAlpha" type="matrix" values="0 0 0 0 0 0 0 0 0 0 0 0 0 0 0 0 0 0 127 0" result="hardAlpha"/>
<feOffset dx="-5.70539" dy="-5.70539"/>
<feGaussianBlur stdDeviation="5.70539"/>
<feComposite in2="hardAlpha" operator="arithmetic" k2="-1" k3="1"/>
<feColorMatrix type="matrix" values="0 0 0 0 0.250398 0 0 0 0 0.292268 0 0 0 0 0.371354 0 0 0 0.25 0"/>
<feBlend mode="normal" in2="effect1_innerShadow_1_9" result="effect2_innerShadow_1_9"/>
</filter>
<filter id="filter2_ii_1_9" x="627.295" y="407.295" width="635.411" height="291.411" filterUnits="userSpaceOnUse" color-interpolation-filters="sRGB">
<feFlood flood-opacity="0" result="BackgroundImageFix"/>
<feBlend mode="normal" in="SourceGraphic" in2="BackgroundImageFix" result="shape"/>
<feColorMatrix in="SourceAlpha" type="matrix" values="0 0 0 0 0 0 0 0 0 0 0 0 0 0 0 0 0 0 127 0" result="hardAlpha"/>
<feOffset dx="5.70539" dy="5.70539"/>
<feGaussianBlur stdDeviation="5.70539"/>
<feComposite in2="hardAlpha" operator="arithmetic" k2="-1" k3="1"/>
<feColorMatrix type="matrix" values="0 0 0 0 0.172549 0 0 0 0 0.2 0 0 0 0 0.254902 0 0 0 1 0"/>
<feBlend mode="normal" in2="shape" result="effect1_innerShadow_1_9"/>
<feColorMatrix in="SourceAlpha" type="matrix" values="0 0 0 0 0 0 0 0 0 0 0 0 0 0 0 0 0 0 127 0" result="hardAlpha"/>
<feOffset dx="-5.70539" dy="-5.70539"/>
<feGaussianBlur stdDeviation="5.70539"/>
<feComposite in2="hardAlpha" operator="arithmetic" k2="-1" k3="1"/>
<feColorMatrix type="matrix" values="0 0 0 0 0.250398 0 0 0 0 0.292268 0 0 0 0 0.371354 0 0 0 0.25 0"/>
<feBlend mode="normal" in2="effect1_innerShadow_1_9" result="effect2_innerShadow_1_9"/>
</filter>
<filter id="filter3_dd_1_9" x="531" y="-9" width="252" height="139" filterUnits="userSpaceOnUse" color-interpolation-filters="sRGB">
<feFlood flood-opacity="0" result="BackgroundImageFix"/>
<feColorMatrix in="SourceAlpha" type="matrix" values="0 0 0 0 0 0 0 0 0 0 0 0 0 0 0 0 0 0 127 0" result="hardAlpha"/>
<feOffset dx="10" dy="10"/>
<feGaussianBlur stdDeviation="10"/>
<feColorMatrix type="matrix" values="0 0 0 0 0.149014 0 0 0 0 0.171825 0 0 0 0 0.217448 0 0 0 1 0"/>
<feBlend mode="normal" in2="BackgroundImageFix" result="effect1_dropShadow_1_9"/>
<feColorMatrix in="SourceAlpha" type="matrix" values="0 0 0 0 0 0 0 0 0 0 0 0 0 0 0 0 0 0 127 0" result="hardAlpha"/>
<feOffset dx="-10" dy="-10"/>
<feGaussianBlur stdDeviation="10"/>
<feColorMatrix type="matrix" values="0 0 0 0 0.282394 0 0 0 0 0.314085 0 0 0 0 0.386523 0 0 0 0.26 0"/>
<feBlend mode="normal" in2="effect1_dropShadow_1_9" result="effect2_dropShadow_1_9"/>
<feBlend mode="normal" in="SourceGraphic" in2="effect2_dropShadow_1_9" result="shape"/>
</filter>
<filter id="filter4_dd_1_9" x="740" y="-9" width="252" height="139" filterUnits="userSpaceOnUse" color-interpolation-filters="sRGB">
<feFlood flood-opacity="0" result="BackgroundImageFix"/>
<feColorMatrix in="SourceAlpha" type="matrix" values="0 0 0 0 0 0 0 0 0 0 0 0 0 0 0 0 0 0 127 0" result="hardAlpha"/>
<feOffset dx="10" dy="10"/>
<feGaussianBlur stdDeviation="10"/>
<feColorMatrix type="matrix" values="0 0 0 0 0.149014 0 0 0 0 0.171825 0 0 0 0 0.217448 0 0 0 1 0"/>
<feBlend mode="normal" in2="BackgroundImageFix" result="effect1_dropShadow_1_9"/>
<feColorMatrix in="SourceAlpha" type="matrix" values="0 0 0 0 0 0 0 0 0 0 0 0 0 0 0 0 0 0 127 0" result="hardAlpha"/>
<feOffset dx="-10" dy="-10"/>
<feGaussianBlur stdDeviation="10"/>
<feColorMatrix type="matrix" values="0 0 0 0 0.282394 0 0 0 0 0.314085 0 0 0 0 0.386523 0 0 0 0.26 0"/>
<feBlend mode="normal" in2="effect1_dropShadow_1_9" result="effect2_dropShadow_1_9"/>
<feBlend mode="normal" in="SourceGraphic" in2="effect2_dropShadow_1_9" result="shape"/>
</filter>
<filter id="filter5_dd_1_9" x="949" y="-9" width="340" height="139" filterUnits="userSpaceOnUse" color-interpolation-filters="sRGB">
<feFlood flood-opacity="0" result="BackgroundImageFix"/>
<feColorMatrix in="SourceAlpha" type="matrix" values="0 0 0 0 0 0 0 0 0 0 0 0 0 0 0 0 0 0 127 0" result="hardAlpha"/>
<feOffset dx="10" dy="10"/>
<feGaussianBlur stdDeviation="10"/>
<feColorMatrix type="matrix" values="0 0 0 0 0.149014 0 0 0 0 0.171825 0 0 0 0 0.217448 0 0 0 1 0"/>
<feBlend mode="normal" in2="BackgroundImageFix" result="effect1_dropShadow_1_9"/>
<feColorMatrix in="SourceAlpha" type="matrix" values="0 0 0 0 0 0 0 0 0 0 0 0 0 0 0 0 0 0 127 0" result="hardAlpha"/>
<feOffset dx="-10" dy="-10"/>
<feGaussianBlur stdDeviation="10"/>
<feColorMatrix type="matrix" values="0 0 0 0 0.282394 0 0 0 0 0.314085 0 0 0 0 0.386523 0 0 0 0.26 0"/>
<feBlend mode="normal" in2="effect1_dropShadow_1_9" result="effect2_dropShadow_1_9"/>
<feBlend mode="normal" in="SourceGraphic" in2="effect2_dropShadow_1_9" result="shape"/>
</filter>
<filter id="filter6_d_1_9" x="979" y="23" width="39" height="39" filterUnits="userSpaceOnUse" color-interpolation-filters="sRGB">
<feFlood flood-opacity="0" result="BackgroundImageFix"/>
<feColorMatrix in="SourceAlpha" type="matrix" values="0 0 0 0 0 0 0 0 0 0 0 0 0 0 0 0 0 0 127 0" result="hardAlpha"/>
<feOffset dy="4"/>
<feGaussianBlur stdDeviation="2"/>
<feComposite in2="hardAlpha" operator="out"/>
<feColorMatrix type="matrix" values="0 0 0 0 0 0 0 0 0 0 0 0 0 0 0 0 0 0 0.25 0"/>
<feBlend mode="normal" in2="BackgroundImageFix" result="effect1_dropShadow_1_9"/>
<feBlend mode="normal" in="SourceGraphic" in2="effect1_dropShadow_1_9" result="shape"/>
</filter>
<filter id="filter7_f_1_9" x="-245.174" y="397.371" width="521.684" height="501.444" filterUnits="userSpaceOnUse" color-interpolation-filters="sRGB">
<feFlood flood-opacity="0" result="BackgroundImageFix"/>
<feBlend mode="normal" in="SourceGraphic" in2="BackgroundImageFix" result="shape"/>
<feGaussianBlur stdDeviation="60.323" result="effect1_foregroundBlur_1_9"/>
</filter>
<filter id="filter8_dd_1_9" x="-11" y="88" width="111" height="635" filterUnits="userSpaceOnUse" color-interpolation-filters="sRGB">
<feFlood flood-opacity="0" result="BackgroundImageFix"/>
<feColorMatrix in="SourceAlpha" type="matrix" values="0 0 0 0 0 0 0 0 0 0 0 0 0 0 0 0 0 0 127 0" result="hardAlpha"/>
<feOffset dx="10" dy="10"/>
<feGaussianBlur stdDeviation="10"/>
<feColorMatrix type="matrix" values="0 0 0 0 0.149014 0 0 0 0 0.171825 0 0 0 0 0.217448 0 0 0 1 0"/>
<feBlend mode="normal" in2="BackgroundImageFix" result="effect1_dropShadow_1_9"/>
<feColorMatrix in="SourceAlpha" type="matrix" values="0 0 0 0 0 0 0 0 0 0 0 0 0 0 0 0 0 0 127 0" result="hardAlpha"/>
<feOffset dx="-10" dy="-10"/>
<feGaussianBlur stdDeviation="10"/>
<feColorMatrix type="matrix" values="0 0 0 0 0.282394 0 0 0 0 0.314085 0 0 0 0 0.386523 0 0 0 0.26 0"/>
<feBlend mode="normal" in2="effect1_dropShadow_1_9" result="effect2_dropShadow_1_9"/>
<feBlend mode="normal" in="SourceGraphic" in2="effect2_dropShadow_1_9" result="shape"/>
</filter>
<filter id="filter9_d_1_9" x="40" y="329" width="9" height="138" filterUnits="userSpaceOnUse" color-interpolation-filters="sRGB">
<feFlood flood-opacity="0" result="BackgroundImageFix"/>
<feColorMatrix in="SourceAlpha" type="matrix" values="0 0 0 0 0 0 0 0 0 0 0 0 0 0 0 0 0 0 127 0" result="hardAlpha"/>
<feOffset dy="4"/>
<feGaussianBlur stdDeviation="2"/>
<feComposite in2="hardAlpha" operator="out"/>
<feColorMatrix type="matrix" values="0 0 0 0 0 0 0 0 0 0 0 0 0 0 0 0 0 0 0.25 0"/>
<feBlend mode="normal" in2="BackgroundImageFix" result="effect1_dropShadow_1_9"/>
<feBlend mode="normal" in="SourceGraphic" in2="effect1_dropShadow_1_9" result="shape"/>
</filter>
<filter id="filter10_ddii_1_9" x="16.75" y="309.75" width="55.5" height="55.5" filterUnits="userSpaceOnUse" color-interpolation-filters="sRGB">
<feFlood flood-opacity="0" result="BackgroundImageFix"/>
<feColorMatrix in="SourceAlpha" type="matrix" values="0 0 0 0 0 0 0 0 0 0 0 0 0 0 0 0 0 0 127 0" result="hardAlpha"/>
<feOffset dx="3.08333" dy="3.08333"/>
<feGaussianBlur stdDeviation="3.08333"/>
<feColorMatrix type="matrix" values="0 0 0 0 0.0941176 0 0 0 0 0.109804 0 0 0 0 0.152941 0 0 0 0.35 0"/>
<feBlend mode="normal" in2="BackgroundImageFix" result="effect1_dropShadow_1_9"/>
<feColorMatrix in="SourceAlpha" type="matrix" values="0 0 0 0 0 0 0 0 0 0 0 0 0 0 0 0 0 0 127 0" result="hardAlpha"/>
<feOffset dx="-3.08333" dy="-3.08333"/>
<feGaussianBlur stdDeviation="3.08333"/>
<feColorMatrix type="matrix" values="0 0 0 0 0.282394 0 0 0 0 0.314085 0 0 0 0 0.386523 0 0 0 0.1 0"/>
<feBlend mode="normal" in2="effect1_dropShadow_1_9" result="effect2_dropShadow_1_9"/>
<feBlend mode="normal" in="SourceGraphic" in2="effect2_dropShadow_1_9" result="shape"/>
<feColorMatrix in="SourceAlpha" type="matrix" values="0 0 0 0 0 0 0 0 0 0 0 0 0 0 0 0 0 0 127 0" result="hardAlpha"/>
<feOffset dx="3.08333" dy="3.08333"/>
<feGaussianBlur stdDeviation="1.54167"/>
<feComposite in2="hardAlpha" operator="arithmetic" k2="-1" k3="1"/>
<feColorMatrix type="matrix" values="0 0 0 0 0.114385 0 0 0 0 0.132458 0 0 0 0 0.182161 0 0 0 1 0"/>
<feBlend mode="normal" in2="shape" result="effect3_innerShadow_1_9"/>
<feColorMatrix in="SourceAlpha" type="matrix" values="0 0 0 0 0 0 0 0 0 0 0 0 0 0 0 0 0 0 127 0" result="hardAlpha"/>
<feOffset dx="-1.23333" dy="-1.23333"/>
<feGaussianBlur stdDeviation="1.23333"/>
<feComposite in2="hardAlpha" operator="arithmetic" k2="-1" k3="1"/>
<feColorMatrix type="matrix" values="0 0 0 0 0.282394 0 0 0 0 0.314085 0 0 0 0 0.386523 0 0 0 0.35 0"/>
<feBlend mode="normal" in2="effect3_innerShadow_1_9" result="effect4_innerShadow_1_9"/>
</filter>
<filter id="filter11_ddii_1_9" x="16.75" y="419.75" width="55.5" height="55.5" filterUnits="userSpaceOnUse" color-interpolation-filters="sRGB">
<feFlood flood-opacity="0" result="BackgroundImageFix"/>
<feColorMatrix in="SourceAlpha" type="matrix" values="0 0 0 0 0 0 0 0 0 0 0 0 0 0 0 0 0 0 127 0" result="hardAlpha"/>
<feOffset dx="3.08333" dy="3.08333"/>
<feGaussianBlur stdDeviation="3.08333"/>
<feColorMatrix type="matrix" values="0 0 0 0 0.0941176 0 0 0 0 0.109804 0 0 0 0 0.152941 0 0 0 0.35 0"/>
<feBlend mode="normal" in2="BackgroundImageFix" result="effect1_dropShadow_1_9"/>
<feColorMatrix in="SourceAlpha" type="matrix" values="0 0 0 0 0 0 0 0 0 0 0 0 0 0 0 0 0 0 127 0" result="hardAlpha"/>
<feOffset dx="-3.08333" dy="-3.08333"/>
<feGaussianBlur stdDeviation="3.08333"/>
<feColorMatrix type="matrix" values="0 0 0 0 0.282394 0 0 0 0 0.314085 0 0 0 0 0.386523 0 0 0 0.1 0"/>
<feBlend mode="normal" in2="effect1_dropShadow_1_9" result="effect2_dropShadow_1_9"/>
<feBlend mode="normal" in="SourceGraphic" in2="effect2_dropShadow_1_9" result="shape"/>
<feColorMatrix in="SourceAlpha" type="matrix" values="0 0 0 0 0 0 0 0 0 0 0 0 0 0 0 0 0 0 127 0" result="hardAlpha"/>
<feOffset dx="3.08333" dy="3.08333"/>
<feGaussianBlur stdDeviation="1.54167"/>
<feComposite in2="hardAlpha" operator="arithmetic" k2="-1" k3="1"/>
<feColorMatrix type="matrix" values="0 0 0 0 0.114385 0 0 0 0 0.132458 0 0 0 0 0.182161 0 0 0 1 0"/>
<feBlend mode="normal" in2="shape" result="effect3_innerShadow_1_9"/>
<feColorMatrix in="SourceAlpha" type="matrix" values="0 0 0 0 0 0 0 0 0 0 0 0 0 0 0 0 0 0 127 0" result="hardAlpha"/>
<feOffset dx="-1.23333" dy="-1.23333"/>
<feGaussianBlur stdDeviation="1.23333"/>
<feComposite in2="hardAlpha" operator="arithmetic" k2="-1" k3="1"/>
<feColorMatrix type="matrix" values="0 0 0 0 0.282394 0 0 0 0 0.314085 0 0 0 0 0.386523 0 0 0 0.35 0"/>
<feBlend mode="normal" in2="effect3_innerShadow_1_9" result="effect4_innerShadow_1_9"/>
</filter>
<filter id="filter12_ddd_1_9" x="4.86364" y="352.864" width="79.2727" height="79.2727" filterUnits="userSpaceOnUse" color-interpolation-filters="sRGB">
<feFlood flood-opacity="0" result="BackgroundImageFix"/>
<feColorMatrix in="SourceAlpha" type="matrix" values="0 0 0 0 0 0 0 0 0 0 0 0 0 0 0 0 0 0 127 0" result="hardAlpha"/>
<feOffset dx="7.04545" dy="7.04545"/>
<feGaussianBlur stdDeviation="7.04545"/>
<feColorMatrix type="matrix" values="0 0 0 0 0.0941176 0 0 0 0 0.109804 0 0 0 0 0.152941 0 0 0 0.35 0"/>
<feBlend mode="normal" in2="BackgroundImageFix" result="effect1_dropShadow_1_9"/>
<feColorMatrix in="SourceAlpha" type="matrix" values="0 0 0 0 0 0 0 0 0 0 0 0 0 0 0 0 0 0 127 0" result="hardAlpha"/>
<feOffset dx="-7.04545" dy="-7.04545"/>
<feGaussianBlur stdDeviation="7.04545"/>
<feColorMatrix type="matrix" values="0 0 0 0 0.223529 0 0 0 0 0.258824 0 0 0 0 0.32549 0 0 0 0.35 0"/>
<feBlend mode="normal" in2="effect1_dropShadow_1_9" result="effect2_dropShadow_1_9"/>
<feColorMatrix in="SourceAlpha" type="matrix" values="0 0 0 0 0 0 0 0 0 0 0 0 0 0 0 0 0 0 127 0" result="hardAlpha"/>
<feMorphology radius="1" operator="dilate" in="SourceAlpha" result="effect3_dropShadow_1_9"/>
<feOffset/>
<feGaussianBlur stdDeviation="2"/>
<feComposite in2="hardAlpha" operator="out"/>
<feColorMatrix type="matrix" values="0 0 0 0 0.937255 0 0 0 0 0 0 0 0 0 0.54902 0 0 0 0.25 0"/>
<feBlend mode="normal" in2="effect2_dropShadow_1_9" result="effect3_dropShadow_1_9"/>
<feBlend mode="normal" in="SourceGraphic" in2="effect3_dropShadow_1_9" result="shape"/>
</filter>
<filter id="filter13_ii_1_9" x="77.2946" y="407.295" width="541.411" height="291.411" filterUnits="userSpaceOnUse" color-interpolation-filters="sRGB">
<feFlood flood-opacity="0" result="BackgroundImageFix"/>
<feBlend mode="normal" in="SourceGraphic" in2="BackgroundImageFix" result="shape"/>
<feColorMatrix in="SourceAlpha" type="matrix" values="0 0 0 0 0 0 0 0 0 0 0 0 0 0 0 0 0 0 127 0" result="hardAlpha"/>
<feOffset dx="5.70539" dy="5.70539"/>
<feGaussianBlur stdDeviation="5.70539"/>
<feComposite in2="hardAlpha" operator="arithmetic" k2="-1" k3="1"/>
<feColorMatrix type="matrix" values="0 0 0 0 0.172549 0 0 0 0 0.2 0 0 0 0 0.254902 0 0 0 1 0"/>
<feBlend mode="normal" in2="shape" result="effect1_innerShadow_1_9"/>
<feColorMatrix in="SourceAlpha" type="matrix" values="0 0 0 0 0 0 0 0 0 0 0 0 0 0 0 0 0 0 127 0" result="hardAlpha"/>
<feOffset dx="-5.70539" dy="-5.70539"/>
<feGaussianBlur stdDeviation="5.70539"/>
<feComposite in2="hardAlpha" operator="arithmetic" k2="-1" k3="1"/>
<feColorMatrix type="matrix" values="0 0 0 0 0.250398 0 0 0 0 0.292268 0 0 0 0 0.371354 0 0 0 0.25 0"/>
<feBlend mode="normal" in2="effect1_innerShadow_1_9" result="effect2_innerShadow_1_9"/>
</filter>
<linearGradient id="paint0_linear_1_9" x1="640" y1="0" x2="640" y2="1060.05" gradientUnits="userSpaceOnUse">
<stop stop-color="#394253"/>
<stop offset="1" stop-color="#181C27"/>
</linearGradient>
<radialGradient id="paint1_angular_1_9" cx="0" cy="0" r="1" gradientUnits="userSpaceOnUse" gradientTransform="translate(1245.77 637.78) rotate(46.4101) scale(20.7233 48.7405)">
<stop stop-color="#1CE783"/>
<stop offset="0.739583" stop-color="#1CE783"/>
</radialGradient>
<radialGradient id="paint2_angular_1_9" cx="0" cy="0" r="1" gradientUnits="userSpaceOnUse" gradientTransform="translate(1242.94 637.093) rotate(46.4101) scale(41.742 80.4854)">
<stop stop-color="#1CE783"/>
<stop offset="0.739583" stop-color="#1CE783"/>
</radialGradient>
<radialGradient id="paint3_angular_1_9" cx="0" cy="0" r="1" gradientUnits="userSpaceOnUse" gradientTransform="translate(1239.75 635.661) rotate(46.4101) scale(64.2439 112.13)">
<stop stop-color="#1CE783"/>
<stop offset="0.739583" stop-color="#1CE783"/>
</radialGradient>
<radialGradient id="paint4_angular_1_9" cx="0" cy="0" r="1" gradientUnits="userSpaceOnUse" gradientTransform="translate(1236.82 634.279) rotate(46.4101) scale(86.7705 143.894)">
<stop stop-color="#1CE783"/>
<stop offset="0.739583" stop-color="#1CE783"/>
</radialGradient>
<radialGradient id="paint5_angular_1_9" cx="0" cy="0" r="1" gradientUnits="userSpaceOnUse" gradientTransform="translate(1233.46 633.083) rotate(46.4101) scale(109.376 175.814)">
<stop stop-color="#1CE783"/>
<stop offset="0.739583" stop-color="#1CE783"/>
</radialGradient>
<radialGradient id="paint6_angular_1_9" cx="0" cy="0" r="1" gradientUnits="userSpaceOnUse" gradientTransform="translate(1230.41 631.717) rotate(46.4101) scale(132.065 207.374)">
<stop stop-color="#1CE783"/>
<stop offset="0.739583" stop-color="#1CE783"/>
</radialGradient>
<radialGradient id="paint7_angular_1_9" cx="0" cy="0" r="1" gradientUnits="userSpaceOnUse" gradientTransform="translate(1227.73 630.056) rotate(46.4101) scale(154.773 238.898)">
<stop stop-color="#1CE783"/>
<stop offset="0.739583" stop-color="#1CE783"/>
</radialGradient>
<radialGradient id="paint8_angular_1_9" cx="0" cy="0" r="1" gradientUnits="userSpaceOnUse" gradientTransform="translate(1224.26 628.986) rotate(46.4101) scale(177.392 270.991)">
<stop stop-color="#1CE783"/>
<stop offset="0.739583" stop-color="#1CE783"/>
</radialGradient>
<radialGradient id="paint9_angular_1_9" cx="0" cy="0" r="1" gradientUnits="userSpaceOnUse" gradientTransform="translate(1221.09 627.598) rotate(46.4101) scale(199.985 302.48)">
<stop stop-color="#1CE783"/>
<stop offset="0.739583" stop-color="#1CE783"/>
</radialGradient>
<radialGradient id="paint10_angular_1_9" cx="0" cy="0" r="1" gradientUnits="userSpaceOnUse" gradientTransform="translate(1218.06 626.27) rotate(46.4101) scale(222.489 334.075)">
<stop stop-color="#1CE783"/>
<stop offset="0.739583" stop-color="#1CE783"/>
</radialGradient>
<radialGradient id="paint11_angular_1_9" cx="0" cy="0" r="1" gradientUnits="userSpaceOnUse" gradientTransform="translate(1215.21 624.876) rotate(46.4101) scale(245.086 366.18)">
<stop stop-color="#1CE783"/>
<stop offset="0.739583" stop-color="#1CE783"/>
</radialGradient>
<radialGradient id="paint12_angular_1_9" cx="0" cy="0" r="1" gradientUnits="userSpaceOnUse" gradientTransform="translate(1211.98 623.437) rotate(46.4101) scale(268.025 397.816)">
<stop stop-color="#1CE783"/>
<stop offset="0.739583" stop-color="#1CE783"/>
</radialGradient>
<radialGradient id="paint13_angular_1_9" cx="0" cy="0" r="1" gradientUnits="userSpaceOnUse" gradientTransform="translate(1208.79 622.272) rotate(46.4101) scale(290.53 429.782)">
<stop stop-color="#1CE783"/>
<stop offset="0.739583" stop-color="#1CE783"/>
</radialGradient>
<radialGradient id="paint14_angular_1_9" cx="0" cy="0" r="1" gradientUnits="userSpaceOnUse" gradientTransform="translate(1205.35 621.14) rotate(46.4101) scale(313.348 461.501)">
<stop stop-color="#1CE783"/>
<stop offset="0.739583" stop-color="#1CE783"/>
</radialGradient>
<radialGradient id="paint15_angular_1_9" cx="0" cy="0" r="1" gradientUnits="userSpaceOnUse" gradientTransform="translate(1202.33 619.662) rotate(46.4101) scale(335.962 493.159)">
<stop stop-color="#1CE783"/>
<stop offset="0.739583" stop-color="#1CE783"/>
</radialGradient>
<radialGradient id="paint16_angular_1_9" cx="0" cy="0" r="1" gradientUnits="userSpaceOnUse" gradientTransform="translate(1199.3 618.592) rotate(46.4101) scale(358.454 524.787)">
<stop stop-color="#1CE783"/>
<stop offset="0.739583" stop-color="#1CE783"/>
</radialGradient>
<radialGradient id="paint17_angular_1_9" cx="0" cy="0" r="1" gradientUnits="userSpaceOnUse" gradientTransform="translate(1196.09 616.987) rotate(46.4101) scale(381.289 556.673)">
<stop stop-color="#1CE783"/>
<stop offset="0.739583" stop-color="#1CE783"/>
</radialGradient>
<linearGradient id="paint18_linear_1_9" x1="593.842" y1="82.3289" x2="630.139" y2="2.7441" gradientUnits="userSpaceOnUse">
<stop stop-color="#2C3341"/>
<stop offset="1" stop-color="#313949"/>
</linearGradient>
<linearGradient id="paint19_linear_1_9" x1="802.842" y1="82.3289" x2="839.139" y2="2.7441" gradientUnits="userSpaceOnUse">
<stop stop-color="#2C3341"/>
<stop offset="1" stop-color="#313949"/>
</linearGradient>
<linearGradient id="paint20_linear_1_9" x1="1026.89" y1="82.3289" x2="1054.28" y2="-5.24477" gradientUnits="userSpaceOnUse">
<stop stop-color="#2C3341"/>
<stop offset="1" stop-color="#313949"/>
</linearGradient>
<radialGradient id="paint21_radial_1_9" cx="0" cy="0" r="1" gradientUnits="userSpaceOnUse" gradientTransform="translate(78.8215 612.646) rotate(138.358) scale(119.735 130.142)">
<stop offset="0.0001" stop-color="#1CE783"/>
<stop offset="0.515" stop-color="#1CE783"/>
</radialGradient>
<linearGradient id="paint22_linear_1_9" x1="27.7237" y1="564.382" x2="83.3602" y2="559.93" gradientUnits="userSpaceOnUse">
<stop stop-color="#2C3341"/>
<stop offset="1" stop-color="#313949"/>
</linearGradient>
<linearGradient id="paint23_linear_1_9" x1="33.0917" y1="327.633" x2="63" y2="360.625" gradientUnits="userSpaceOnUse">
<stop stop-color="#1D222E"/>
<stop offset="1" stop-color="#293140"/>
</linearGradient>
<linearGradient id="paint24_linear_1_9" x1="33.0917" y1="437.633" x2="63" y2="470.625" gradientUnits="userSpaceOnUse">
<stop stop-color="#1D222E"/>
<stop offset="1" stop-color="#293140"/>
</linearGradient>
<linearGradient id="paint25_linear_1_9" x1="50.3583" y1="411" x2="33.0917" y2="378.625" gradientUnits="userSpaceOnUse">
<stop stop-color="#1D222E"/>
<stop offset="1" stop-color="#293140"/>
</linearGradient>
<clipPath id="clip0_1_9">
<rect width="1280" height="720" fill="white"/>
</clipPath>
<clipPath id="clip1_1_9">
<rect width="31" height="31" fill="white" transform="translate(983 23)"/>
</clipPath>
</defs>
</svg>
